<?xml version="1.0" encoding="UTF-8"?>
<svg width="752pt" height="752pt" version="1.1" viewBox="0 0 752 752" xmlns="http://www.w3.org/2000/svg">
 <path d="m577.27 257.61h-402.54c-6.5391 0-11.84-5.3008-11.84-11.84v-23.68c0-6.5391 5.3008-11.836 11.84-11.836h402.54c6.5391 0 11.84 5.2969 11.84 11.836v23.68c0 6.5391-5.3008 11.84-11.84 11.84zm11.84 130.23v-23.68c0-6.5352-5.3008-11.836-11.84-11.836h-402.54c-6.5391 0-11.84 5.3008-11.84 11.836v23.68c0 6.5391 5.3008 11.84 11.84 11.84h402.54c6.5391 0 11.84-5.3008 11.84-11.84zm0 142.07v-23.68c0-6.5352-5.3008-11.836-11.84-11.836h-402.54c-6.5391 0-11.84 5.3008-11.84 11.836v23.68c0 6.5391 5.3008 11.84 11.84 11.84h402.54c6.5391 0 11.84-5.3008 11.84-11.84z"/>
</svg>
